<svg width="275" height="58" viewBox="0 0 275 58" fill="none" xmlns="http://www.w3.org/2000/svg">
<path d="M169.303 37.6641V34.3613C169.303 33.8171 169.402 33.4274 169.6 33.1924C169.81 32.9574 170.144 32.8398 170.602 32.8398C171.109 32.8398 171.511 33.1862 171.808 33.8789C172.006 34.2995 172.185 34.6149 172.346 34.8252C172.865 35.4932 173.632 36.0312 174.646 36.4395C175.661 36.8353 176.78 37.0332 178.005 37.0332C179.316 37.0332 180.368 36.7673 181.159 36.2354C181.951 35.7035 182.347 35.0046 182.347 34.1387C182.347 33.2604 182.025 32.6357 181.382 32.2646C180.751 31.8936 179.662 31.708 178.116 31.708H177.096C174.572 31.708 172.649 31.2689 171.325 30.3906C170.002 29.5124 169.34 28.2383 169.34 26.5684C169.34 24.9355 169.983 23.6676 171.27 22.7646C172.568 21.8617 174.387 21.4102 176.725 21.4102C177.677 21.4102 178.648 21.5462 179.638 21.8184C180.627 22.0781 181.147 22.208 181.196 22.208C181.332 22.208 181.592 22.0905 181.976 21.8555C182.359 21.6081 182.736 21.4844 183.107 21.4844C183.528 21.4844 183.837 21.639 184.035 21.9482C184.245 22.2575 184.351 22.7214 184.351 23.3398V25.5107C184.351 26.1663 184.252 26.6426 184.054 26.9395C183.856 27.224 183.54 27.3662 183.107 27.3662C182.736 27.3662 182.279 27.0508 181.734 26.4199C181.351 25.987 181.035 25.6592 180.788 25.4365C180.132 24.8304 179.434 24.3975 178.691 24.1377C177.949 23.8656 177.077 23.7295 176.075 23.7295C174.912 23.7295 173.972 23.9893 173.255 24.5088C172.55 25.016 172.197 25.6654 172.197 26.457C172.197 27.2363 172.562 27.793 173.292 28.127C174.022 28.4609 175.593 28.6527 178.005 28.7021C180.578 28.764 182.458 29.2155 183.646 30.0566C184.833 30.8854 185.427 32.1719 185.427 33.916C185.427 35.5859 184.771 36.9219 183.46 37.9238C182.149 38.9258 180.38 39.4268 178.153 39.4268C177.448 39.4268 176.663 39.3587 175.797 39.2227C174.931 39.099 173.842 38.8825 172.531 38.5732C172.098 38.8577 171.727 39.068 171.418 39.2041C171.109 39.3525 170.849 39.4268 170.639 39.4268C170.206 39.4268 169.872 39.2783 169.637 38.9814C169.414 38.6722 169.303 38.2331 169.303 37.6641ZM203.76 22.8945C204.366 22.8945 204.806 22.9997 205.078 23.21C205.362 23.4202 205.504 23.7542 205.504 24.2119C205.504 24.6449 205.375 24.9727 205.115 25.1953C204.855 25.4056 204.465 25.5107 203.946 25.5107H196.431V31.708C196.431 33.7367 196.691 35.0726 197.21 35.7158C197.742 36.359 198.645 36.6807 199.919 36.6807C201.045 36.6807 202.393 36.3529 203.964 35.6973C205.535 35.0417 206.506 34.7139 206.877 34.7139C207.224 34.7139 207.515 34.8376 207.75 35.085C207.997 35.3324 208.121 35.6354 208.121 35.9941C208.121 36.4023 207.966 36.7611 207.657 37.0703C207.36 37.3672 206.847 37.6579 206.117 37.9424C204.904 38.4248 203.81 38.7773 202.833 39C201.868 39.2227 200.959 39.334 200.105 39.334C198.658 39.334 197.439 39.1051 196.45 38.6475C195.473 38.1774 194.743 37.4847 194.26 36.5693C194.013 36.1364 193.834 35.623 193.722 35.0293C193.623 34.4355 193.574 33.5202 193.574 32.2832V31.708V25.5107H190.419C189.9 25.5107 189.523 25.4118 189.288 25.2139C189.053 25.0036 188.935 24.6696 188.935 24.2119C188.935 23.7048 189.096 23.3584 189.417 23.1729C189.739 22.9873 190.426 22.8945 191.477 22.8945H193.574V19.0908V18.1074C193.574 17.5755 193.685 17.1859 193.908 16.9385C194.143 16.6787 194.501 16.5488 194.984 16.5488C195.528 16.5488 195.905 16.7035 196.116 17.0127C196.326 17.3219 196.431 18.027 196.431 19.1279V22.8945H203.76ZM224.116 30.7988C223.436 30.5762 222.774 30.4154 222.131 30.3164C221.5 30.2051 220.869 30.1494 220.238 30.1494C218.333 30.1494 216.83 30.471 215.73 31.1143C214.629 31.7575 214.078 32.6234 214.078 33.7119C214.078 34.5531 214.418 35.2458 215.099 35.79C215.791 36.3343 216.67 36.6064 217.733 36.6064C219.304 36.6064 220.758 36.1982 222.094 35.3818C223.442 34.5531 224.116 33.6934 224.116 32.8027V30.7988ZM224.265 36.6436C223.25 37.5589 222.143 38.2578 220.943 38.7402C219.756 39.2227 218.531 39.4639 217.27 39.4639C215.426 39.4639 213.936 38.9505 212.798 37.9238C211.672 36.8971 211.109 35.5612 211.109 33.916C211.109 31.9616 211.858 30.4463 213.355 29.3701C214.864 28.2939 216.979 27.7559 219.7 27.7559C220.418 27.7559 221.141 27.8053 221.871 27.9043C222.601 27.9909 223.349 28.1331 224.116 28.3311V28.2012C224.116 26.7786 223.776 25.7272 223.096 25.0469C222.415 24.3665 221.358 24.0264 219.923 24.0264C218.958 24.0264 217.882 24.2861 216.694 24.8057C215.507 25.3252 214.721 25.585 214.338 25.585C213.979 25.585 213.682 25.4427 213.447 25.1582C213.212 24.8613 213.095 24.484 213.095 24.0264C213.095 23.2965 213.775 22.6781 215.136 22.1709C216.509 21.6637 218.259 21.4102 220.387 21.4102C222.564 21.4102 224.209 21.9668 225.322 23.0801C226.436 24.181 226.992 25.8138 226.992 27.9785V36.3838H227.901C228.78 36.3838 229.367 36.4766 229.664 36.6621C229.961 36.8477 230.109 37.1816 230.109 37.6641C230.109 38.1094 229.986 38.4434 229.738 38.666C229.491 38.8887 229.12 39 228.625 39H225.712C225.366 39 225.081 38.8949 224.858 38.6846C224.636 38.4743 224.487 38.1712 224.413 37.7754L224.265 36.6436ZM246.884 22.9688V22.8945C246.884 22.4863 247.002 22.1895 247.237 22.0039C247.472 21.806 247.837 21.707 248.332 21.707C248.839 21.707 249.185 21.8555 249.371 22.1523C249.569 22.4492 249.668 23.0615 249.668 23.9893V27.4404C249.668 27.8981 249.55 28.2445 249.315 28.4795C249.08 28.7021 248.727 28.8135 248.257 28.8135C247.923 28.8135 247.633 28.7207 247.385 28.5352C247.15 28.3372 246.86 27.9352 246.513 27.3291C245.919 26.3271 245.196 25.5726 244.342 25.0654C243.501 24.5459 242.53 24.2861 241.429 24.2861C239.5 24.2861 237.929 24.8551 236.716 25.9932C235.516 27.1312 234.917 28.6032 234.917 30.4092C234.917 32.2523 235.492 33.7614 236.642 34.9365C237.805 36.0993 239.295 36.6807 241.114 36.6807C241.943 36.6807 242.728 36.5693 243.47 36.3467C244.225 36.1117 244.936 35.7653 245.604 35.3076C245.839 35.1592 246.155 34.9303 246.55 34.6211C247.354 33.9655 247.985 33.6377 248.443 33.6377C248.826 33.6377 249.136 33.7614 249.371 34.0088C249.618 34.2438 249.742 34.5531 249.742 34.9365C249.742 35.9137 248.814 36.9157 246.959 37.9424C245.115 38.9567 243.155 39.4639 241.077 39.4639C238.392 39.4639 236.154 38.6042 234.36 36.8848C232.579 35.1654 231.688 33.0192 231.688 30.4463C231.688 27.8734 232.579 25.7272 234.36 24.0078C236.141 22.276 238.368 21.4102 241.04 21.4102C241.98 21.4102 242.92 21.54 243.86 21.7998C244.812 22.0472 245.821 22.4368 246.884 22.9688ZM259.225 31.8936V37.3672C259.225 37.862 259.12 38.2578 258.909 38.5547C258.711 38.8516 258.452 39 258.13 39H254.697C254.215 39 253.85 38.8887 253.603 38.666C253.355 38.4434 253.232 38.1094 253.232 37.6641C253.232 37.1693 253.374 36.8353 253.658 36.6621C253.955 36.4766 254.58 36.3838 255.532 36.3838H256.423V17.3838H255.662C254.598 17.3838 253.912 17.291 253.603 17.1055C253.293 16.9076 253.139 16.555 253.139 16.0479C253.139 15.6025 253.262 15.2686 253.51 15.0459C253.77 14.8232 254.141 14.7119 254.623 14.7119H258.167C258.501 14.7119 258.761 14.7799 258.946 14.916C259.132 15.0521 259.225 15.2376 259.225 15.4727V28.7764L264.587 24.2861C264.179 24.113 263.876 23.9212 263.678 23.7109C263.492 23.5007 263.399 23.2533 263.399 22.9688C263.399 22.5977 263.536 22.3193 263.808 22.1338C264.08 21.9482 264.476 21.8555 264.995 21.8555H270.024C270.494 21.8555 270.852 21.9606 271.1 22.1709C271.347 22.3812 271.471 22.6966 271.471 23.1172C271.471 23.8594 270.871 24.2923 269.671 24.416C269.436 24.4408 269.25 24.4655 269.114 24.4902C268.607 24.5521 268.051 24.75 267.444 25.084C266.838 25.4056 266.226 25.8385 265.607 26.3828L262.917 28.7393L269.949 36.3838H271.545C272.077 36.3838 272.454 36.4827 272.677 36.6807C272.912 36.8786 273.029 37.2064 273.029 37.6641C273.029 38.097 272.899 38.431 272.64 38.666C272.392 38.8887 272.027 39 271.545 39H266.517C265.972 39 265.577 38.9072 265.329 38.7217C265.082 38.5361 264.958 38.2393 264.958 37.8311C264.958 37.4971 265.076 37.2126 265.311 36.9775C265.558 36.7301 265.923 36.5322 266.405 36.3838L260.895 30.3721L259.225 31.8936Z" fill="#0F4167"/>
<path d="M16.9775 39C16.7178 39 16.5322 38.9382 16.4209 38.8145C16.3219 38.6784 16.2725 38.4248 16.2725 38.0537V36.5322C15.5303 37.46 14.6025 38.1836 13.4893 38.7031C12.376 39.2103 11.1699 39.4639 9.87109 39.4639C7.5332 39.4639 5.57259 38.6351 3.98926 36.9775C2.41829 35.3076 1.63281 33.2357 1.63281 30.7617C1.63281 28.2012 2.47396 26.0736 4.15625 24.3789C5.83854 22.6719 7.93522 21.8184 10.4463 21.8184C11.7204 21.8184 12.8646 22.0472 13.8789 22.5049C14.8932 22.9502 15.7653 23.612 16.4951 24.4902V17.3838H15.5117C14.4355 17.3838 13.7367 17.291 13.415 17.1055C13.1058 16.9076 12.9512 16.555 12.9512 16.0479C12.9512 15.6025 13.0749 15.2686 13.3223 15.0459C13.582 14.8232 13.9531 14.7119 14.4355 14.7119H18.2393C18.6104 14.7119 18.8763 14.7738 19.0371 14.8975C19.2103 15.0212 19.2969 15.2129 19.2969 15.4727V36.3838H20.1318C20.738 36.3838 21.1771 36.4889 21.4492 36.6992C21.7214 36.8971 21.8574 37.2188 21.8574 37.6641C21.8574 38.0846 21.7399 38.4124 21.5049 38.6475C21.2699 38.8825 20.9544 39 20.5586 39H16.9775ZM4.82422 30.6689C4.82422 32.376 5.37467 33.7738 6.47559 34.8623C7.5765 35.9508 8.97428 36.4951 10.6689 36.4951C12.376 36.4951 13.7799 35.9323 14.8809 34.8066C15.9818 33.6686 16.5322 32.2275 16.5322 30.4834C16.5322 28.764 15.9818 27.3477 14.8809 26.2344C13.7923 25.1211 12.3883 24.5645 10.6689 24.5645C8.9248 24.5645 7.51465 25.1273 6.43848 26.2529C5.3623 27.3786 4.82422 28.8506 4.82422 30.6689ZM36.814 30.7988C36.1336 30.5762 35.4719 30.4154 34.8286 30.3164C34.1978 30.2051 33.5669 30.1494 32.9361 30.1494C31.0311 30.1494 29.5282 30.471 28.4273 31.1143C27.3264 31.7575 26.7759 32.6234 26.7759 33.7119C26.7759 34.5531 27.1161 35.2458 27.7964 35.79C28.4891 36.3343 29.3674 36.6064 30.4312 36.6064C32.0021 36.6064 33.4556 36.1982 34.7915 35.3818C36.1398 34.5531 36.814 33.6934 36.814 32.8027V30.7988ZM36.9624 36.6436C35.9481 37.5589 34.841 38.2578 33.6411 38.7402C32.4536 39.2227 31.229 39.4639 29.9673 39.4639C28.1242 39.4639 26.6336 38.9505 25.4956 37.9238C24.37 36.8971 23.8071 35.5612 23.8071 33.916C23.8071 31.9616 24.5555 30.4463 26.0523 29.3701C27.5614 28.2939 29.6766 27.7559 32.398 27.7559C33.1154 27.7559 33.839 27.8053 34.5689 27.9043C35.2987 27.9909 36.0471 28.1331 36.814 28.3311V28.2012C36.814 26.7786 36.4738 25.7272 35.7935 25.0469C35.1131 24.3665 34.0555 24.0264 32.6206 24.0264C31.6558 24.0264 30.5796 24.2861 29.3921 24.8057C28.2046 25.3252 27.4191 25.585 27.0357 25.585C26.6769 25.585 26.3801 25.4427 26.145 25.1582C25.91 24.8613 25.7925 24.484 25.7925 24.0264C25.7925 23.2965 26.4728 22.6781 27.8335 22.1709C29.2066 21.6637 30.9569 21.4102 33.0845 21.4102C35.2616 21.4102 36.9068 21.9668 38.02 23.0801C39.1333 24.181 39.69 25.8138 39.69 27.9785V36.3838H40.5991C41.4774 36.3838 42.065 36.4766 42.3618 36.6621C42.6587 36.8477 42.8071 37.1816 42.8071 37.6641C42.8071 38.1094 42.6835 38.4434 42.4361 38.666C42.1887 38.8887 41.8176 39 41.3228 39H38.4097C38.0633 39 37.7788 38.8949 37.5562 38.6846C37.3335 38.4743 37.1851 38.1712 37.1109 37.7754L36.9624 36.6436ZM59.0625 22.8945C59.6687 22.8945 60.1078 22.9997 60.3799 23.21C60.6644 23.4202 60.8067 23.7542 60.8067 24.2119C60.8067 24.6449 60.6768 24.9727 60.417 25.1953C60.1573 25.4056 59.7676 25.5107 59.2481 25.5107H51.7334V31.708C51.7334 33.7367 51.9932 35.0726 52.5127 35.7158C53.0446 36.359 53.9476 36.6807 55.2217 36.6807C56.3474 36.6807 57.6957 36.3529 59.2666 35.6973C60.8376 35.0417 61.8086 34.7139 62.1797 34.7139C62.5261 34.7139 62.8168 34.8376 63.0518 35.085C63.2992 35.3324 63.4229 35.6354 63.4229 35.9941C63.4229 36.4023 63.2683 36.7611 62.959 37.0703C62.6621 37.3672 62.1488 37.6579 61.419 37.9424C60.2067 38.4248 59.112 38.7773 58.1348 39C57.17 39.2227 56.2608 39.334 55.4073 39.334C53.96 39.334 52.7416 39.1051 51.752 38.6475C50.7748 38.1774 50.045 37.4847 49.5625 36.5693C49.3151 36.1364 49.1358 35.623 49.0245 35.0293C48.9255 34.4355 48.876 33.5202 48.876 32.2832V31.708V25.5107H45.7217C45.2022 25.5107 44.8249 25.4118 44.5899 25.2139C44.3549 25.0036 44.2373 24.6696 44.2373 24.2119C44.2373 23.7048 44.3982 23.3584 44.7198 23.1729C45.0414 22.9873 45.7279 22.8945 46.7793 22.8945H48.876V19.0908V18.1074C48.876 17.5755 48.9873 17.1859 49.21 16.9385C49.445 16.6787 49.8037 16.5488 50.2862 16.5488C50.8304 16.5488 51.2077 16.7035 51.418 17.0127C51.6283 17.3219 51.7334 18.027 51.7334 19.1279V22.8945H59.0625ZM79.4185 30.7988C78.7382 30.5762 78.0764 30.4154 77.4332 30.3164C76.8023 30.2051 76.1714 30.1494 75.5406 30.1494C73.6356 30.1494 72.1327 30.471 71.0318 31.1143C69.9309 31.7575 69.3804 32.6234 69.3804 33.7119C69.3804 34.5531 69.7206 35.2458 70.4009 35.79C71.0936 36.3343 71.9719 36.6064 73.0357 36.6064C74.6067 36.6064 76.0601 36.1982 77.3961 35.3818C78.7444 34.5531 79.4185 33.6934 79.4185 32.8027V30.7988ZM79.567 36.6436C78.5526 37.5589 77.4455 38.2578 76.2457 38.7402C75.0582 39.2227 73.8336 39.4639 72.5718 39.4639C70.7287 39.4639 69.2382 38.9505 68.1002 37.9238C66.9745 36.8971 66.4117 35.5612 66.4117 33.916C66.4117 31.9616 67.1601 30.4463 68.6568 29.3701C70.1659 28.2939 72.2811 27.7559 75.0025 27.7559C75.7199 27.7559 76.4436 27.8053 77.1734 27.9043C77.9032 27.9909 78.6516 28.1331 79.4185 28.3311V28.2012C79.4185 26.7786 79.0783 25.7272 78.398 25.0469C77.7177 24.3665 76.6601 24.0264 75.2252 24.0264C74.2603 24.0264 73.1841 24.2861 71.9966 24.8057C70.8091 25.3252 70.0237 25.585 69.6402 25.585C69.2815 25.585 68.9846 25.4427 68.7496 25.1582C68.5145 24.8613 68.397 24.484 68.397 24.0264C68.397 23.2965 69.0774 22.6781 70.438 22.1709C71.8111 21.6637 73.5614 21.4102 75.689 21.4102C77.8661 21.4102 79.5113 21.9668 80.6246 23.0801C81.7379 24.181 82.2945 25.8138 82.2945 27.9785V36.3838H83.2037C84.0819 36.3838 84.6695 36.4766 84.9664 36.6621C85.2632 36.8477 85.4117 37.1816 85.4117 37.6641C85.4117 38.1094 85.288 38.4434 85.0406 38.666C84.7932 38.8887 84.4221 39 83.9273 39H81.0142C80.6679 39 80.3834 38.8949 80.1607 38.6846C79.938 38.4743 79.7896 38.1712 79.7154 37.7754L79.567 36.6436Z" fill="#0F4167"/>
<g clip-path="url(#clip0_4_164)">
<path d="M161.59 28.5C161.481 28.2508 161.302 28.0387 161.075 27.8895C160.848 27.7404 160.582 27.6606 160.31 27.66C154.54 24.37 156.31 17.03 157.31 11.38C157.8 8.38 158.26 4.95 156.66 2.18C156.028 1.15951 155.024 0.424494 153.86 0.13C153.358 0.0105566 152.835 0.0165005 152.336 0.147306C151.837 0.278112 151.378 0.529754 151 0.88C150.81 1.01 150.91 1.35 151.16 1.26C152.27 0.9 153.58 1.82 154.29 2.59C155.29 3.65 155.29 5.45 155.29 6.8C155.21 10.1 154.15 13.34 153.74 16.61C153.238 19.5756 153.556 22.6221 154.66 25.42C155.267 26.8196 156.207 28.0489 157.4 29C156.216 29.9615 155.274 31.1878 154.65 32.58C153.548 35.3783 153.229 38.4243 153.73 41.39C154.14 44.66 155.2 47.9 155.28 51.19C155.28 52.55 155.28 54.35 154.28 55.4C153.57 56.18 152.28 57.09 151.15 56.73C150.9 56.65 150.8 56.98 150.99 57.12C151.362 57.4676 151.814 57.718 152.306 57.8488C152.798 57.9797 153.315 57.987 153.81 57.87C154.951 57.5847 155.937 56.8677 156.56 55.87C158.16 53.1 157.7 49.72 157.21 46.67C156.16 40.22 154.62 33.61 160.21 30.38C160.481 30.3815 160.747 30.3038 160.974 30.1563C161.201 30.0088 161.381 29.7981 161.49 29.55C161.562 29.3936 161.597 29.2222 161.59 29.05C161.656 28.8726 161.656 28.6774 161.59 28.5Z" fill="#104067"/>
<path d="M91.12 29.47C91.2249 29.7199 91.4015 29.9332 91.6276 30.0827C91.8536 30.2322 92.119 30.3113 92.39 30.31C98.16 33.6 96.39 40.94 95.44 46.59C94.95 49.59 94.44 53.02 96.09 55.79C96.7104 56.8002 97.6947 57.5339 98.84 57.84C99.3372 57.9525 99.8543 57.9431 100.347 57.8125C100.84 57.6819 101.294 57.434 101.67 57.09C101.86 56.96 101.75 56.62 101.5 56.71C100.39 57.07 99.08 56.15 98.38 55.38C97.38 54.32 97.38 52.52 97.38 51.17C97.47 47.87 98.53 44.63 98.93 41.36C99.4321 38.3944 99.1139 35.3479 98.01 32.55C97.4077 31.1645 96.4777 29.9462 95.3 29C96.4869 28.0328 97.429 26.7995 98.05 25.4C99.1626 22.6045 99.491 19.5584 99 16.59C98.6 13.32 97.54 10.08 97.45 6.79C97.45 5.43 97.45 3.63 98.45 2.58C99.15 1.8 100.45 0.89 101.57 1.25C101.82 1.33 101.93 1 101.74 0.86C101.359 0.500958 100.893 0.243968 100.386 0.112859C99.8793 -0.0182501 99.3474 -0.0192333 98.84 0.11C97.6905 0.407447 96.7033 1.14336 96.09 2.16C94.49 4.93 95 8.31 95.44 11.36C96.36 17.01 98.16 24.36 92.39 27.65C92.1198 27.6465 91.8547 27.7236 91.6285 27.8715C91.4023 28.0193 91.2253 28.2311 91.12 28.48C91.0336 28.6393 90.9922 28.819 91 29C90.9861 29.1657 91.0283 29.3313 91.12 29.47V29.47Z" fill="#104067"/>
<path d="M151.49 33.27L126.38 21.93L102.3 31.76L126.57 45.4L151.49 33.27Z" stroke="#104067" stroke-miterlimit="10"/>
<path d="M151.33 28.74L126.22 17.4L102.14 27.23L126.41 40.87L151.33 28.74Z" stroke="#104067" stroke-miterlimit="10"/>
<path d="M151.19 24.34L126.08 13L102 22.82L126.27 36.47L151.19 24.34Z" fill="#104067"/>
</g>
<defs>
<clipPath id="clip0_4_164">
<rect width="70.7" height="57.97" fill="white" transform="translate(91)"/>
</clipPath>
</defs>
</svg>
